<?xml version="1.0" encoding="iso-8859-1"?>
<!-- Uploaded to: SVG Repo, www.svgrepo.com, Generator: SVG Repo Mixer Tools -->
<svg version="1.1" id="Layer_1" xmlns="http://www.w3.org/2000/svg" xmlns:xlink="http://www.w3.org/1999/xlink" 
	 viewBox="0 0 496 496" xml:space="preserve">
<g>
	<g>
		<g>
			<path d="M360,224c-8.2,0-16.192,0.856-24,2.248V48h-88V32h-40.808C203.48,13.768,187.32,0,168,0s-35.48,13.768-39.192,32H88v16H0
				v448h336v-2.248c7.808,1.392,15.8,2.248,24,2.248c74.992,0,136-61.008,136-136S434.992,224,360,224z M248,64h72v166.024
				c-5.504,1.696-10.816,3.832-16,6.184V80h-56V64z M104,48h40v-8c0-13.232,10.768-24,24-24s24,10.768,24,24v8h40v32H104V48z
				 M248,96h40v148.832c-5.616,3.52-10.976,7.384-16,11.664V256H64v16h192.496c-4.28,5.024-8.136,10.384-11.664,16H224v16h12.208
				c-6.72,14.792-10.8,30.968-11.8,48h-45.096l-29.656-29.656l-11.312,11.312L156.688,352h-17.376l-29.656-29.656l-11.312,11.312
				L116.688,352H99.312l-29.656-29.656l-11.312,11.312L84.688,360l-26.344,26.344l11.312,11.312L99.312,368h17.376l-18.344,18.344
				l11.312,11.312L139.312,368h17.376l-18.344,18.344l11.312,11.312L179.312,368h45.096c1.784,30.416,13.496,58.168,32.088,80H48V96
				h40H248z M16,480V64h72v16H32v384h240.544c7.264,6.12,15.152,11.488,23.592,16H16z M360,480c-63.464,0-115.448-49.56-119.592-112
				h32c4.056,44.784,41.768,80,87.592,80c48.52,0,88-39.48,88-88c0-48.52-39.48-88-88-88c-45.824,0-83.536,35.216-87.592,80h-32
				c4.144-62.44,56.128-112,119.592-112c66.168,0,120,53.832,120,120S426.168,480,360,480z M337.472,352
				c3.312-9.288,12.112-16,22.528-16c13.232,0,24,10.768,24,24s-10.768,24-24,24c-10.416,0-19.216-6.712-22.528-16H360v-16H337.472z
				 M360,400c22.056,0,40-17.944,40-40c0-22.056-17.944-40-40-40c-19.312,0-35.472,13.768-39.192,32h-32.336
				c4-35.944,34.536-64,71.528-64c39.696,0,72,32.304,72,72s-32.304,72-72,72c-36.992,0-67.528-28.056-71.528-64h32.336
				C324.528,386.232,340.68,400,360,400z"/>
			<path d="M64,240h208V112H64V240z M80,128h176v96H80V128z"/>
			<rect x="64" y="288" width="144" height="16"/>
		</g>
	</g>
</g>
</svg>