<?xml version="1.0" encoding="iso-8859-1"?>
<!-- Uploaded to: SVG Repo, www.svgrepo.com, Generator: SVG Repo Mixer Tools -->
<svg fill="#000000" version="1.1" id="Layer_1" xmlns="http://www.w3.org/2000/svg" xmlns:xlink="http://www.w3.org/1999/xlink" 
	 viewBox="0 0 496 496" xml:space="preserve">
<g>
	<g>
		<g>
			<rect y="480" width="496" height="16"/>
			<path d="M336,400h-16v-16h16v-16h-16v-16h16v-16h-16v-14.304c35.152-23.936,56-63.128,56-105.696c0-70.576-57.424-128-128-128
				s-128,57.424-128,128c0,42.568,20.848,81.76,56,105.696V336h-16v16h16v16h-16v16h16v16h-16v32H0v8v8v16h16v-16h16v16h16v-16h16
				v16h16v-16h16v16h16v-16h16v16h16v-16h16v16h16v-16h16v16h16v-16h16v16h16v-16h16v16h16v-16h16v16h16v-16h16v16h16v-16h16v16h16
				v-16h16v16h16v-16h16v16h16v-16h16v16h16v-16h16v16h16v-16v-8v-8H336V400z M136,216c0-61.76,50.24-112,112-112s112,50.24,112,112
				c0,38.536-19.536,73.912-52.28,94.624l-3.72,2.352V336h-48v-89.136c13.768-3.576,24-15.992,24-30.864c0-17.648-14.352-32-32-32
				s-32,14.352-32,32c0,14.872,10.232,27.288,24,30.864V336h-48v-23.024l-3.72-2.352C155.536,289.912,136,254.536,136,216z M192,368
				v-16h112v16H192z M304,384v16H192v-16H304z M248,232c-8.824,0-16-7.176-16-16c0-8.824,7.176-16,16-16c8.824,0,16,7.176,16,16
				C264,224.824,256.824,232,248,232z M320,432H176v-16h144V432z"/>
			<path d="M472,0c-15.056,0-28.496,6.976-37.296,17.848L392,43.472v38.952l5.008,7.512l-33.592,23.512l9.168,13.112l33.296-23.312
				l4.984,7.472l30.096,10.032L482.216,96H496V80h-24c-17.648,0-32-14.352-32-32s14.352-32,32-32h24V0H472z M455.864,93.152
				l-16.832,10.096l-17.904-5.968L408,77.576V52.528l16.304-9.784C424.112,44.472,424,46.224,424,48
				C424,68.8,437.32,86.504,455.864,93.152z"/>
			<path d="M448,48c0,13.232,10.768,24,24,24s24-10.768,24-24s-10.768-24-24-24S448,34.768,448,48z M480,48c0,4.416-3.584,8-8,8
				c-4.416,0-8-3.584-8-8s3.584-8,8-8C476.416,40,480,43.584,480,48z"/>
			<path d="M56,64h24c10.416,0,19.216-6.712,22.528-16h37.632l29.592,37l12.504-10L147.84,32h-45.32C99.216,22.712,90.416,16,80,16
				H56V0H0v16h40v48H0v16h56V64z M56,32h24c4.416,0,8,3.584,8,8s-3.584,8-8,8H56V32z"/>
			
				<rect x="207.493" y="60.005" transform="matrix(-0.9701 0.2425 -0.2425 -0.9701 457.7734 79.6526)" width="32.982" height="15.991"/>
			
				<rect x="192.003" y="21.525" transform="matrix(0.8321 0.5547 -0.5547 0.8321 53.528 -104.8999)" width="16.001" height="28.849"/>
			<rect x="123.997" y="99.024" transform="matrix(0.7071 0.7071 -0.7071 0.7071 120.6824 -59.3618)" width="16" height="33.944"/>
			<rect x="104" y="72" width="32" height="16"/>
			<path d="M64,360c30.872,0,56-25.128,56-56s-25.128-56-56-56c-21.68,0-41.176,12.696-50.384,32H0v16h64c4.416,0,8,3.584,8,8
				c0,4.416-3.584,8-8,8H0v16h13.616C22.824,347.304,42.32,360,64,360z M64,328c13.232,0,24-10.768,24-24s-10.768-24-24-24H32.08
				c7.424-9.872,19.168-16,31.92-16c22.056,0,40,17.944,40,40c0,22.056-17.944,40-40,40c-12.752,0-24.496-6.128-31.92-16H64z"/>
			<polygon points="434.744,279.432 376,289.224 376,334.776 434.744,344.568 443.312,336 496,336 496,320 436.688,320 
				429.256,327.432 392,321.224 392,302.776 429.256,296.568 436.688,304 496,304 496,288 443.312,288 			"/>
		</g>
	</g>
</g>
</svg>