<?xml version="1.0" encoding="iso-8859-1"?>
<!-- Uploaded to: SVG Repo, www.svgrepo.com, Generator: SVG Repo Mixer Tools -->
<svg fill="#000000" height="800px" width="800px" version="1.1" id="Layer_1" xmlns="http://www.w3.org/2000/svg" xmlns:xlink="http://www.w3.org/1999/xlink" 
	 viewBox="0 0 512 512" xml:space="preserve">
<g>
	<g>
		<path d="M207.238,438.857v24.381c0,26.93,21.831,48.762,48.762,48.762s48.762-21.832,48.762-48.762v-24.381H207.238z"/>
	</g>
</g>
<g>
	<g>
		<path d="M292.57,188.952h-18.287v36.571h18.287c10.083,0,18.286-8.203,18.286-18.286S302.653,188.952,292.57,188.952z"/>
	</g>
</g>
<g>
	<g>
		<path d="M219.427,115.81c-10.084,0-18.286,8.203-18.286,18.286c0,10.083,8.203,18.286,18.286,18.286h18.284V115.81H219.427z"/>
	</g>
</g>
<g>
	<g>
		<path d="M256,0C161.743,0,85.333,76.41,85.333,170.667c0,49.034,20.641,93.227,53.753,124.356
			c33.25,33.251,61.368,73.093,67.076,107.263h31.553v-60.952h36.571v60.952h31.553c5.709-34.17,33.826-74.012,67.077-107.263
			c33.111-31.13,53.751-75.323,53.751-124.356C426.667,76.41,350.257,0,256,0z M292.57,262.095h-18.287v30.476h-36.571v-30.476
			h-18.284c-14.627,0-28.982-2.453-42.667-7.29l12.188-34.481c9.76,3.45,20.013,5.199,30.479,5.199h18.284v-36.571h-18.284
			c-30.248,0-54.857-24.609-54.857-54.857c0-30.248,24.609-54.857,54.857-54.857h18.284V48.762h36.571v30.476h18.287
			c14.627,0,28.982,2.453,42.667,7.289l-12.188,34.481c-9.76-3.449-20.013-5.198-30.479-5.198h-18.287v36.571h18.287
			c30.249,0,54.857,24.609,54.857,54.857S322.82,262.095,292.57,262.095z"/>
	</g>
</g>
</svg>